# Blender 5.0.1
# www.blender.org
mtllib sm_d6.mtl
o sm_K100_DiceSet_03
v 0.007237 -0.006867 -0.006904
v 0.007233 -0.006535 -0.007227
v 0.007554 -0.006530 -0.006895
v 0.007451 0.006925 -0.006897
v 0.007149 0.006926 -0.007207
v 0.007144 0.007232 -0.006900
v -0.006574 -0.006599 -0.006976
v -0.006242 -0.006599 -0.007308
v -0.006242 -0.006930 -0.006975
v -0.006298 0.007182 -0.006984
v -0.006300 0.006870 -0.007309
v -0.006620 0.006869 -0.006992
v 0.007368 0.006944 0.006532
v 0.007064 0.007238 0.006527
v 0.007066 0.006942 0.006828
v -0.006371 0.006883 0.006772
v -0.006369 0.007193 0.006459
v -0.006689 0.006889 0.006467
v 0.007446 -0.006493 0.006554
v 0.007130 -0.006491 0.006859
v 0.007150 -0.006821 0.006567
v -0.006308 -0.006886 0.006490
v -0.006306 -0.006561 0.006808
v -0.006631 -0.006567 0.006487
vn 0.7287 -0.6848 0.0071
vn 0.5919 -0.8060 0.0047
vn 0.0096 -0.8822 -0.4707
vn 0.5914 -0.8063 0.0047
vn 0.0060 -0.8823 -0.4707
vn 0.0060 -0.8822 -0.4708
vn 0.5914 -0.8064 0.0047
vn 0.0061 -0.8822 -0.4708
vn 0.5918 -0.8061 0.0044
vn 0.0064 -0.8824 -0.4705
vn 0.8515 0.0033 -0.5244
vn 0.8515 0.0049 -0.5244
vn 0.8517 0.0033 -0.5240
vn 0.7704 0.6375 0.0030
vn 0.7705 0.6374 0.0031
vn 0.7703 0.6377 0.0031
vn 0.7704 0.6376 0.0027
vn 0.8516 0.0037 -0.5242
vn 0.0009 0.5961 -0.8029
vn -0.8680 -0.4965 -0.0040
vn -0.8681 -0.4965 -0.0029
vn 0.0056 -0.8823 -0.4706
vn -0.8682 -0.4962 -0.0036
vn 0.0009 0.5957 -0.8032
vn -0.4877 -0.0026 -0.8730
vn 0.0005 0.5960 -0.8030
vn -0.4875 -0.0032 -0.8731
vn -0.5432 0.8396 -0.0047
vn 0.7706 0.6374 0.0030
vn 0.6241 0.0041 0.7814
vn 0.5917 -0.8061 0.0051
vn 0.6237 0.0041 0.7816
vn 0.6238 0.0041 0.7816
vn 0.7704 0.6375 0.0034
vn -0.0072 0.8566 0.5160
vn -0.0073 0.8566 0.5160
vn 0.7704 0.6376 0.0034
vn -0.5428 0.8398 -0.0046
vn -0.0076 0.8566 0.5159
vn -0.5430 0.8397 -0.0042
vn -0.7966 -0.0029 0.6046
vn -0.7966 -0.0029 0.6045
vn -0.5430 0.8397 -0.0043
vn -0.8683 -0.4961 -0.0041
vn 0.5915 -0.8063 0.0047
vn -0.8681 -0.4963 -0.0036
vn -0.8681 -0.4963 -0.0037
vn 0.6237 0.0041 0.7817
vn -0.7967 -0.0032 0.6044
vn 0.8517 0.0034 -0.5240
vn 0.8518 0.0033 -0.5239
vn 0.0008 0.5961 -0.8029
vn 0.7709 0.6370 0.0031
vn -0.5428 0.8399 -0.0046
vn -0.5428 0.8398 -0.0047
vn 0.7708 0.6370 0.0031
vn 0.6240 0.0042 0.7814
vn 0.6240 0.0041 0.7814
vn -0.7969 -0.0027 0.6042
vn -0.7969 -0.0029 0.6042
vn 0.6241 0.0042 0.7814
vn -0.0072 0.8568 0.5156
vn 0.0060 -0.8825 -0.4703
vn 0.5919 -0.8060 0.0048
vn -0.8683 -0.4961 -0.0040
vn -0.4873 -0.0037 -0.8732
vn -0.4873 -0.0036 -0.8732
vn -0.5428 0.8399 -0.0047
vn 0.5915 -0.8063 0.0046
vn 0.8517 0.0033 -0.5239
vn 0.5915 -0.8063 0.0048
vn 0.5914 -0.8064 0.0052
vn 0.0056 -0.8826 -0.4701
vn 0.5913 -0.8064 0.0052
vn 0.8518 0.0029 -0.5238
vn 0.7706 0.6373 0.0035
vn -0.8684 -0.4959 -0.0036
vn 0.0064 -0.8826 -0.4701
vn 0.0064 -0.8826 -0.4702
vn 0.0013 0.5956 -0.8033
vn -0.4872 -0.0041 -0.8733
vn 0.7706 0.6373 0.0026
vn 0.6237 0.0036 0.7817
vn -0.0068 0.8569 0.5155
vn -0.5426 0.8399 -0.0051
vn -0.5427 0.8399 -0.0051
vn 0.5913 -0.8064 0.0043
vn -0.8683 -0.4960 -0.0045
vn -0.7970 -0.0024 0.6040
vn -0.8684 -0.4959 -0.0045
vt 0.879697 0.504917
vt 0.877235 0.504917
vt 0.879697 0.411340
vt 0.877235 0.411340
vt 0.754853 0.295017
vt 0.754853 0.292576
vt 0.847605 0.295017
vt 0.847605 0.292576
vt 0.752412 0.295017
vt 0.752412 0.387768
vt 0.754853 0.387768
vt 0.628470 0.412247
vt 0.630885 0.412247
vt 0.628470 0.504010
vt 0.630885 0.504010
vt 0.754853 0.390209
vt 0.847605 0.390209
vt 0.847605 0.387768
vt 0.975736 0.504917
vt 0.973274 0.504917
vt 0.975736 0.411340
vt 0.973274 0.411340
vt 0.850046 0.295017
vt 0.850046 0.387768
vt 0.722648 0.412247
vt 0.725063 0.412247
vt 0.722648 0.504010
vt 0.725063 0.504010
vt 0.751978 0.411340
vt 0.754440 0.411340
vt 0.751978 0.504917
vt 0.754440 0.504917
vt 0.630885 0.506425
vt 0.722648 0.506425
vt 0.848018 0.411340
vt 0.850480 0.411340
vt 0.848018 0.504917
vt 0.850480 0.504917
vt 0.754440 0.507379
vt 0.848018 0.507379
vt 0.880741 0.295648
vt 0.972229 0.295648
vt 0.880741 0.387137
vt 0.972229 0.387137
vt 0.631086 0.388181
vt 0.631086 0.294604
vt 0.724663 0.388181
vt 0.724663 0.294604
s 1
usemtl Diceset
f 1/1/1 3/2/1 21/3/1
f 21/3/2 3/2/2 19/4/2
f 2/5/3 1/6/4 8/7/5
f 8/7/6 1/6/7 9/8/8
f 3/9/9 2/5/10 4/10/11
f 4/10/11 2/5/10 5/11/12
f 4/12/13 6/13/14 13/14/15
f 13/14/16 6/13/16 14/15/16
f 6/16/17 5/11/18 10/17/19
f 10/17/19 5/11/18 11/18/19
f 7/19/20 9/20/10 24/21/20
f 24/21/20 9/20/10 22/22/21
f 8/7/22 7/23/23 11/18/24
f 11/18/24 7/23/23 12/24/25
f 10/25/26 12/26/27 17/27/28
f 17/27/28 12/26/27 18/28/28
f 13/29/29 15/30/30 19/31/31
f 19/31/31 15/30/32 20/32/33
f 15/33/32 14/15/34 16/34/35
f 16/34/36 14/15/37 17/27/38
f 16/35/39 18/36/40 23/37/41
f 23/37/42 18/36/43 24/38/44
f 21/39/45 20/32/32 22/40/46
f 22/40/47 20/32/48 23/37/49
f 2/5/5 8/7/5 5/11/50
f 5/11/51 8/7/5 11/18/52
f 14/15/53 6/13/53 17/27/54
f 17/27/55 6/13/56 10/25/24
f 20/32/57 15/30/58 23/37/59
f 23/37/60 15/30/61 16/35/62
f 1/1/2 21/3/2 9/20/63
f 9/20/63 21/3/64 22/22/65
f 7/41/65 24/42/44 12/43/66
f 12/43/67 24/42/44 18/44/68
f 13/45/16 19/46/69 4/47/70
f 4/47/13 19/46/45 3/48/71
f 1/6/72 2/5/73 3/9/74
f 4/10/75 5/11/75 6/16/76
f 7/23/77 8/7/78 9/8/79
f 10/17/80 11/18/80 12/24/81
f 13/14/82 14/15/82 15/33/83
f 16/34/84 17/27/85 18/28/86
f 19/31/87 20/32/48 21/39/87
f 22/40/88 23/37/89 24/38/90
